<mxfile host="app.diagrams.net" modified="2023-06-21T19:13:21.712Z" agent="Mozilla/5.0 (Windows NT 10.0; Win64; x64) AppleWebKit/537.36 (KHTML, like Gecko) Chrome/114.0.0.0 Safari/537.36" etag="I3GhO62L5aqEsRjQgGjv" version="21.5.0" type="device">
  <diagram name="Page-1" id="OMFNTm1YXZq7TplVaW0e">
    <mxGraphModel dx="794" dy="508" grid="1" gridSize="10" guides="1" tooltips="1" connect="1" arrows="1" fold="1" page="1" pageScale="1" pageWidth="827" pageHeight="1169" math="0" shadow="0">
      <root>
        <mxCell id="0" />
        <mxCell id="1" parent="0" />
        <mxCell id="u0YorvcQMeuO6eI5wtP1-1" value="Use Case Diagram" style="shape=umlFrame;whiteSpace=wrap;html=1;pointerEvents=0;width=120;height=20;" parent="1" vertex="1">
          <mxGeometry x="180" y="120" width="480" height="710" as="geometry" />
        </mxCell>
        <mxCell id="u0YorvcQMeuO6eI5wtP1-29" style="edgeStyle=orthogonalEdgeStyle;rounded=0;orthogonalLoop=1;jettySize=auto;html=1;exitX=1;exitY=0.5;exitDx=0;exitDy=0;entryX=0;entryY=0.5;entryDx=0;entryDy=0;dashed=1;dashPattern=1 4;endArrow=open;endFill=0;" parent="1" source="u0YorvcQMeuO6eI5wtP1-2" target="u0YorvcQMeuO6eI5wtP1-7" edge="1">
          <mxGeometry relative="1" as="geometry" />
        </mxCell>
        <mxCell id="u0YorvcQMeuO6eI5wtP1-35" value="&amp;lt;&amp;lt;include&amp;gt;&amp;gt;" style="edgeLabel;html=1;align=center;verticalAlign=middle;resizable=0;points=[];" parent="u0YorvcQMeuO6eI5wtP1-29" vertex="1" connectable="0">
          <mxGeometry x="-0.416" y="-1" relative="1" as="geometry">
            <mxPoint x="8" y="-18" as="offset" />
          </mxGeometry>
        </mxCell>
        <mxCell id="u0YorvcQMeuO6eI5wtP1-2" value="Periodic Order" style="ellipse;whiteSpace=wrap;html=1;" parent="1" vertex="1">
          <mxGeometry x="280" y="580" width="140" height="50" as="geometry" />
        </mxCell>
        <mxCell id="u0YorvcQMeuO6eI5wtP1-30" style="edgeStyle=orthogonalEdgeStyle;rounded=0;orthogonalLoop=1;jettySize=auto;html=1;exitX=1;exitY=0.5;exitDx=0;exitDy=0;entryX=0;entryY=1;entryDx=0;entryDy=0;endArrow=open;endFill=0;dashed=1;dashPattern=1 4;" parent="1" source="u0YorvcQMeuO6eI5wtP1-3" target="u0YorvcQMeuO6eI5wtP1-7" edge="1">
          <mxGeometry relative="1" as="geometry" />
        </mxCell>
        <mxCell id="u0YorvcQMeuO6eI5wtP1-36" value="&amp;lt;&amp;lt;include&amp;gt;&amp;gt;" style="edgeLabel;html=1;align=center;verticalAlign=middle;resizable=0;points=[];" parent="u0YorvcQMeuO6eI5wtP1-30" vertex="1" connectable="0">
          <mxGeometry x="0.1902" y="-1" relative="1" as="geometry">
            <mxPoint as="offset" />
          </mxGeometry>
        </mxCell>
        <mxCell id="u0YorvcQMeuO6eI5wtP1-3" value="Shortage Order" style="ellipse;whiteSpace=wrap;html=1;" parent="1" vertex="1">
          <mxGeometry x="280" y="640" width="140" height="50" as="geometry" />
        </mxCell>
        <mxCell id="u0YorvcQMeuO6eI5wtP1-4" value="Shift Scheduling" style="ellipse;whiteSpace=wrap;html=1;" parent="1" vertex="1">
          <mxGeometry x="350" y="200" width="140" height="50" as="geometry" />
        </mxCell>
        <mxCell id="u0YorvcQMeuO6eI5wtP1-5" value="New Employee" style="ellipse;whiteSpace=wrap;html=1;" parent="1" vertex="1">
          <mxGeometry x="350" y="140" width="140" height="50" as="geometry" />
        </mxCell>
        <mxCell id="u0YorvcQMeuO6eI5wtP1-6" value="Update Employee Details" style="ellipse;whiteSpace=wrap;html=1;" parent="1" vertex="1">
          <mxGeometry x="350" y="300" width="140" height="50" as="geometry" />
        </mxCell>
        <mxCell id="u0YorvcQMeuO6eI5wtP1-7" value="Inventory and Storage Updates" style="ellipse;whiteSpace=wrap;html=1;" parent="1" vertex="1">
          <mxGeometry x="460" y="580" width="140" height="50" as="geometry" />
        </mxCell>
        <mxCell id="u0YorvcQMeuO6eI5wtP1-8" value="New Supplier" style="ellipse;whiteSpace=wrap;html=1;" parent="1" vertex="1">
          <mxGeometry x="350" y="735" width="140" height="50" as="geometry" />
        </mxCell>
        <mxCell id="u0YorvcQMeuO6eI5wtP1-9" value="Delivery Scheduling and approval" style="ellipse;whiteSpace=wrap;html=1;" parent="1" vertex="1">
          <mxGeometry x="345" y="392.5" width="150" height="55" as="geometry" />
        </mxCell>
        <mxCell id="u0YorvcQMeuO6eI5wtP1-22" style="edgeStyle=orthogonalEdgeStyle;rounded=0;orthogonalLoop=1;jettySize=auto;html=1;exitX=1;exitY=0.25;exitDx=0;exitDy=0;entryX=0;entryY=0.5;entryDx=0;entryDy=0;" parent="1" source="u0YorvcQMeuO6eI5wtP1-21" target="u0YorvcQMeuO6eI5wtP1-2" edge="1">
          <mxGeometry relative="1" as="geometry">
            <Array as="points">
              <mxPoint x="150" y="630" />
              <mxPoint x="200" y="630" />
              <mxPoint x="200" y="605" />
            </Array>
          </mxGeometry>
        </mxCell>
        <mxCell id="u0YorvcQMeuO6eI5wtP1-23" style="edgeStyle=orthogonalEdgeStyle;rounded=0;orthogonalLoop=1;jettySize=auto;html=1;exitX=1;exitY=0.75;exitDx=0;exitDy=0;entryX=0;entryY=0.5;entryDx=0;entryDy=0;" parent="1" source="u0YorvcQMeuO6eI5wtP1-21" target="u0YorvcQMeuO6eI5wtP1-3" edge="1">
          <mxGeometry relative="1" as="geometry" />
        </mxCell>
        <mxCell id="u0YorvcQMeuO6eI5wtP1-21" value="«actor»&lt;br&gt;&lt;b&gt;OrderScheduler&lt;/b&gt;" style="html=1;whiteSpace=wrap;" parent="1" vertex="1">
          <mxGeometry x="40" y="615" width="110" height="50" as="geometry" />
        </mxCell>
        <mxCell id="u0YorvcQMeuO6eI5wtP1-31" style="edgeStyle=orthogonalEdgeStyle;rounded=0;orthogonalLoop=1;jettySize=auto;html=1;exitX=0.5;exitY=0.5;exitDx=0;exitDy=0;entryX=0;entryY=0;entryDx=0;entryDy=0;exitPerimeter=0;" parent="1" source="u0YorvcQMeuO6eI5wtP1-32" target="u0YorvcQMeuO6eI5wtP1-7" edge="1">
          <mxGeometry relative="1" as="geometry">
            <mxPoint x="150" y="585" as="sourcePoint" />
            <Array as="points">
              <mxPoint x="115" y="520" />
              <mxPoint x="481" y="520" />
            </Array>
          </mxGeometry>
        </mxCell>
        <mxCell id="u0YorvcQMeuO6eI5wtP1-32" value="Storage Manager" style="shape=umlActor;verticalLabelPosition=bottom;verticalAlign=top;html=1;" parent="1" vertex="1">
          <mxGeometry x="100" y="490" width="30" height="60" as="geometry" />
        </mxCell>
        <mxCell id="u0YorvcQMeuO6eI5wtP1-39" style="edgeStyle=orthogonalEdgeStyle;rounded=0;orthogonalLoop=1;jettySize=auto;html=1;exitX=0.5;exitY=0.5;exitDx=0;exitDy=0;exitPerimeter=0;entryX=0;entryY=0.5;entryDx=0;entryDy=0;" parent="1" source="u0YorvcQMeuO6eI5wtP1-38" target="u0YorvcQMeuO6eI5wtP1-8" edge="1">
          <mxGeometry relative="1" as="geometry" />
        </mxCell>
        <mxCell id="u0YorvcQMeuO6eI5wtP1-38" value="Super-Lee Manager" style="shape=umlActor;verticalLabelPosition=bottom;verticalAlign=top;html=1;" parent="1" vertex="1">
          <mxGeometry x="100" y="730" width="30" height="60" as="geometry" />
        </mxCell>
        <mxCell id="7" style="edgeStyle=orthogonalEdgeStyle;rounded=0;orthogonalLoop=1;jettySize=auto;html=1;exitX=0.5;exitY=0.5;exitDx=0;exitDy=0;exitPerimeter=0;entryX=0;entryY=0.5;entryDx=0;entryDy=0;" parent="1" source="2" target="u0YorvcQMeuO6eI5wtP1-5" edge="1">
          <mxGeometry relative="1" as="geometry" />
        </mxCell>
        <mxCell id="8" style="edgeStyle=orthogonalEdgeStyle;rounded=0;orthogonalLoop=1;jettySize=auto;html=1;exitX=0.5;exitY=0.5;exitDx=0;exitDy=0;exitPerimeter=0;entryX=0;entryY=0.5;entryDx=0;entryDy=0;" parent="1" source="2" target="u0YorvcQMeuO6eI5wtP1-4" edge="1">
          <mxGeometry relative="1" as="geometry" />
        </mxCell>
        <mxCell id="9" style="edgeStyle=orthogonalEdgeStyle;rounded=0;orthogonalLoop=1;jettySize=auto;html=1;exitX=0.5;exitY=0.5;exitDx=0;exitDy=0;exitPerimeter=0;entryX=0;entryY=0.5;entryDx=0;entryDy=0;" parent="1" source="2" target="u0YorvcQMeuO6eI5wtP1-6" edge="1">
          <mxGeometry relative="1" as="geometry" />
        </mxCell>
        <mxCell id="2" value="HR Manager" style="shape=umlActor;verticalLabelPosition=bottom;verticalAlign=top;html=1;" parent="1" vertex="1">
          <mxGeometry x="100" y="135" width="30" height="60" as="geometry" />
        </mxCell>
        <mxCell id="3" value="Employee" style="shape=umlActor;verticalLabelPosition=bottom;verticalAlign=top;html=1;" parent="1" vertex="1">
          <mxGeometry x="100" y="260" width="30" height="60" as="geometry" />
        </mxCell>
        <mxCell id="6" style="edgeStyle=orthogonalEdgeStyle;rounded=0;orthogonalLoop=1;jettySize=auto;html=1;exitX=0.5;exitY=0.5;exitDx=0;exitDy=0;exitPerimeter=0;entryX=0;entryY=0.5;entryDx=0;entryDy=0;" parent="1" source="4" target="u0YorvcQMeuO6eI5wtP1-9" edge="1">
          <mxGeometry relative="1" as="geometry" />
        </mxCell>
        <mxCell id="4" value="Delivery Manager" style="shape=umlActor;verticalLabelPosition=bottom;verticalAlign=top;html=1;" parent="1" vertex="1">
          <mxGeometry x="100" y="390" width="30" height="60" as="geometry" />
        </mxCell>
        <mxCell id="10" style="edgeStyle=orthogonalEdgeStyle;rounded=0;orthogonalLoop=1;jettySize=auto;html=1;exitX=1;exitY=0.5;exitDx=0;exitDy=0;entryX=0.5;entryY=0;entryDx=0;entryDy=0;dashed=1;dashPattern=1 4;endArrow=open;endFill=0;" parent="1" source="u0YorvcQMeuO6eI5wtP1-9" target="u0YorvcQMeuO6eI5wtP1-7" edge="1">
          <mxGeometry relative="1" as="geometry">
            <mxPoint x="510" y="460" as="sourcePoint" />
            <mxPoint x="550" y="410" as="targetPoint" />
            <Array as="points">
              <mxPoint x="530" y="420" />
            </Array>
          </mxGeometry>
        </mxCell>
        <mxCell id="11" value="&amp;lt;&amp;lt;include&amp;gt;&amp;gt;" style="edgeLabel;html=1;align=center;verticalAlign=middle;resizable=0;points=[];" parent="10" vertex="1" connectable="0">
          <mxGeometry x="-0.416" y="-1" relative="1" as="geometry">
            <mxPoint y="19" as="offset" />
          </mxGeometry>
        </mxCell>
        <mxCell id="nFy5Mc15L_o9c_TITV0G-11" value="HR manager" style="shape=umlLifeline;perimeter=lifelinePerimeter;whiteSpace=wrap;html=1;container=0;dropTarget=0;collapsible=0;recursiveResize=0;outlineConnect=0;portConstraint=eastwest;newEdgeStyle={&quot;edgeStyle&quot;:&quot;elbowEdgeStyle&quot;,&quot;elbow&quot;:&quot;vertical&quot;,&quot;curved&quot;:0,&quot;rounded&quot;:0};" vertex="1" parent="1">
          <mxGeometry x="5" y="40" width="100" height="1450" as="geometry" />
        </mxCell>
        <mxCell id="nFy5Mc15L_o9c_TITV0G-12" value="Shift Controller" style="shape=umlLifeline;perimeter=lifelinePerimeter;whiteSpace=wrap;html=1;container=0;dropTarget=0;collapsible=0;recursiveResize=0;outlineConnect=0;portConstraint=eastwest;newEdgeStyle={&quot;edgeStyle&quot;:&quot;elbowEdgeStyle&quot;,&quot;elbow&quot;:&quot;vertical&quot;,&quot;curved&quot;:0,&quot;rounded&quot;:0};" vertex="1" parent="1">
          <mxGeometry x="132.5" y="40" width="100" height="1450" as="geometry" />
        </mxCell>
        <mxCell id="nFy5Mc15L_o9c_TITV0G-13" value="" style="html=1;points=[];perimeter=orthogonalPerimeter;outlineConnect=0;targetShapes=umlLifeline;portConstraint=eastwest;newEdgeStyle={&quot;edgeStyle&quot;:&quot;elbowEdgeStyle&quot;,&quot;elbow&quot;:&quot;vertical&quot;,&quot;curved&quot;:0,&quot;rounded&quot;:0};" vertex="1" parent="nFy5Mc15L_o9c_TITV0G-12">
          <mxGeometry x="45" y="80" width="10" height="1350" as="geometry" />
        </mxCell>
        <mxCell id="nFy5Mc15L_o9c_TITV0G-14" value="" style="html=1;points=[];perimeter=orthogonalPerimeter;outlineConnect=0;targetShapes=umlLifeline;portConstraint=eastwest;newEdgeStyle={&quot;edgeStyle&quot;:&quot;elbowEdgeStyle&quot;,&quot;elbow&quot;:&quot;vertical&quot;,&quot;curved&quot;:0,&quot;rounded&quot;:0};" vertex="1" parent="nFy5Mc15L_o9c_TITV0G-12">
          <mxGeometry x="40" y="390" width="20" height="510" as="geometry" />
        </mxCell>
        <mxCell id="nFy5Mc15L_o9c_TITV0G-15" value="" style="edgeStyle=segmentEdgeStyle;endArrow=classic;html=1;curved=0;rounded=0;endSize=8;startSize=8;" edge="1" parent="nFy5Mc15L_o9c_TITV0G-12" source="nFy5Mc15L_o9c_TITV0G-13" target="nFy5Mc15L_o9c_TITV0G-14">
          <mxGeometry width="50" height="50" relative="1" as="geometry">
            <mxPoint x="52.5" y="385" as="sourcePoint" />
            <mxPoint x="52.5" y="415" as="targetPoint" />
            <Array as="points">
              <mxPoint x="98" y="380" />
              <mxPoint x="98" y="400" />
            </Array>
          </mxGeometry>
        </mxCell>
        <mxCell id="nFy5Mc15L_o9c_TITV0G-16" value="1:addScheduleDriver&lt;br&gt;(employeeId,shiftId)" style="html=1;verticalAlign=bottom;endArrow=block;edgeStyle=elbowEdgeStyle;elbow=vertical;curved=0;rounded=0;" edge="1" parent="1" target="nFy5Mc15L_o9c_TITV0G-13">
          <mxGeometry x="-0.1304" relative="1" as="geometry">
            <mxPoint x="60" y="130" as="sourcePoint" />
            <Array as="points">
              <mxPoint x="145" y="130" />
            </Array>
            <mxPoint x="170" y="130" as="targetPoint" />
            <mxPoint as="offset" />
          </mxGeometry>
        </mxCell>
        <mxCell id="nFy5Mc15L_o9c_TITV0G-17" value="Employee&lt;br&gt;Controller" style="shape=umlLifeline;perimeter=lifelinePerimeter;whiteSpace=wrap;html=1;container=0;dropTarget=0;collapsible=0;recursiveResize=0;outlineConnect=0;portConstraint=eastwest;newEdgeStyle={&quot;edgeStyle&quot;:&quot;elbowEdgeStyle&quot;,&quot;elbow&quot;:&quot;vertical&quot;,&quot;curved&quot;:0,&quot;rounded&quot;:0};" vertex="1" parent="1">
          <mxGeometry x="260" y="40" width="100" height="1450" as="geometry" />
        </mxCell>
        <mxCell id="nFy5Mc15L_o9c_TITV0G-18" value="" style="html=1;points=[];perimeter=orthogonalPerimeter;outlineConnect=0;targetShapes=umlLifeline;portConstraint=eastwest;newEdgeStyle={&quot;edgeStyle&quot;:&quot;elbowEdgeStyle&quot;,&quot;elbow&quot;:&quot;vertical&quot;,&quot;curved&quot;:0,&quot;rounded&quot;:0};" vertex="1" parent="nFy5Mc15L_o9c_TITV0G-17">
          <mxGeometry x="45" y="80" width="10" height="80" as="geometry" />
        </mxCell>
        <mxCell id="nFy5Mc15L_o9c_TITV0G-19" value="" style="html=1;points=[];perimeter=orthogonalPerimeter;outlineConnect=0;targetShapes=umlLifeline;portConstraint=eastwest;newEdgeStyle={&quot;edgeStyle&quot;:&quot;elbowEdgeStyle&quot;,&quot;elbow&quot;:&quot;vertical&quot;,&quot;curved&quot;:0,&quot;rounded&quot;:0};" vertex="1" parent="nFy5Mc15L_o9c_TITV0G-17">
          <mxGeometry x="45" y="170" width="10" height="30" as="geometry" />
        </mxCell>
        <mxCell id="nFy5Mc15L_o9c_TITV0G-20" value="" style="html=1;points=[];perimeter=orthogonalPerimeter;outlineConnect=0;targetShapes=umlLifeline;portConstraint=eastwest;newEdgeStyle={&quot;edgeStyle&quot;:&quot;elbowEdgeStyle&quot;,&quot;elbow&quot;:&quot;vertical&quot;,&quot;curved&quot;:0,&quot;rounded&quot;:0};" vertex="1" parent="nFy5Mc15L_o9c_TITV0G-17">
          <mxGeometry x="45" y="340" width="10" height="30" as="geometry" />
        </mxCell>
        <mxCell id="nFy5Mc15L_o9c_TITV0G-21" value="" style="html=1;points=[];perimeter=orthogonalPerimeter;outlineConnect=0;targetShapes=umlLifeline;portConstraint=eastwest;newEdgeStyle={&quot;edgeStyle&quot;:&quot;elbowEdgeStyle&quot;,&quot;elbow&quot;:&quot;vertical&quot;,&quot;curved&quot;:0,&quot;rounded&quot;:0};" vertex="1" parent="nFy5Mc15L_o9c_TITV0G-17">
          <mxGeometry x="45" y="480" width="10" height="30" as="geometry" />
        </mxCell>
        <mxCell id="nFy5Mc15L_o9c_TITV0G-22" value="" style="html=1;points=[];perimeter=orthogonalPerimeter;outlineConnect=0;targetShapes=umlLifeline;portConstraint=eastwest;newEdgeStyle={&quot;edgeStyle&quot;:&quot;elbowEdgeStyle&quot;,&quot;elbow&quot;:&quot;vertical&quot;,&quot;curved&quot;:0,&quot;rounded&quot;:0};" vertex="1" parent="nFy5Mc15L_o9c_TITV0G-17">
          <mxGeometry x="45" y="540" width="10" height="50" as="geometry" />
        </mxCell>
        <mxCell id="nFy5Mc15L_o9c_TITV0G-23" value="1.1:getEmployees()" style="html=1;verticalAlign=bottom;endArrow=block;edgeStyle=elbowEdgeStyle;elbow=vertical;curved=0;rounded=0;" edge="1" parent="1" source="nFy5Mc15L_o9c_TITV0G-13" target="nFy5Mc15L_o9c_TITV0G-18">
          <mxGeometry x="-0.25" relative="1" as="geometry">
            <mxPoint x="190" y="140" as="sourcePoint" />
            <Array as="points">
              <mxPoint x="260" y="130" />
              <mxPoint x="290" y="140" />
            </Array>
            <mxPoint x="350" y="140" as="targetPoint" />
            <mxPoint as="offset" />
          </mxGeometry>
        </mxCell>
        <mxCell id="nFy5Mc15L_o9c_TITV0G-24" value="" style="html=1;verticalAlign=bottom;endArrow=open;dashed=1;endSize=8;edgeStyle=elbowEdgeStyle;elbow=vertical;curved=0;rounded=0;" edge="1" parent="1" source="nFy5Mc15L_o9c_TITV0G-19" target="nFy5Mc15L_o9c_TITV0G-13">
          <mxGeometry relative="1" as="geometry">
            <mxPoint x="230" y="240" as="targetPoint" />
            <Array as="points">
              <mxPoint x="280" y="230" />
              <mxPoint x="250" y="220" />
              <mxPoint x="250" y="210" />
            </Array>
            <mxPoint x="350" y="240" as="sourcePoint" />
          </mxGeometry>
        </mxCell>
        <mxCell id="nFy5Mc15L_o9c_TITV0G-25" value="Employee" style="shape=umlLifeline;perimeter=lifelinePerimeter;whiteSpace=wrap;html=1;container=0;dropTarget=0;collapsible=0;recursiveResize=0;outlineConnect=0;portConstraint=eastwest;newEdgeStyle={&quot;edgeStyle&quot;:&quot;elbowEdgeStyle&quot;,&quot;elbow&quot;:&quot;vertical&quot;,&quot;curved&quot;:0,&quot;rounded&quot;:0};" vertex="1" parent="1">
          <mxGeometry x="375" y="40" width="100" height="1450" as="geometry" />
        </mxCell>
        <mxCell id="nFy5Mc15L_o9c_TITV0G-26" value="" style="html=1;points=[];perimeter=orthogonalPerimeter;outlineConnect=0;targetShapes=umlLifeline;portConstraint=eastwest;newEdgeStyle={&quot;edgeStyle&quot;:&quot;elbowEdgeStyle&quot;,&quot;elbow&quot;:&quot;vertical&quot;,&quot;curved&quot;:0,&quot;rounded&quot;:0};" vertex="1" parent="nFy5Mc15L_o9c_TITV0G-25">
          <mxGeometry x="45" y="210" width="10" height="60" as="geometry" />
        </mxCell>
        <mxCell id="nFy5Mc15L_o9c_TITV0G-27" value="" style="html=1;points=[];perimeter=orthogonalPerimeter;outlineConnect=0;targetShapes=umlLifeline;portConstraint=eastwest;newEdgeStyle={&quot;edgeStyle&quot;:&quot;elbowEdgeStyle&quot;,&quot;elbow&quot;:&quot;vertical&quot;,&quot;curved&quot;:0,&quot;rounded&quot;:0};" vertex="1" parent="nFy5Mc15L_o9c_TITV0G-25">
          <mxGeometry x="45" y="590" width="10" height="60" as="geometry" />
        </mxCell>
        <mxCell id="nFy5Mc15L_o9c_TITV0G-28" value="" style="html=1;points=[];perimeter=orthogonalPerimeter;outlineConnect=0;targetShapes=umlLifeline;portConstraint=eastwest;newEdgeStyle={&quot;edgeStyle&quot;:&quot;elbowEdgeStyle&quot;,&quot;elbow&quot;:&quot;vertical&quot;,&quot;curved&quot;:0,&quot;rounded&quot;:0};" vertex="1" parent="nFy5Mc15L_o9c_TITV0G-25">
          <mxGeometry x="45" y="670" width="10" height="60" as="geometry" />
        </mxCell>
        <mxCell id="nFy5Mc15L_o9c_TITV0G-29" value="" style="html=1;points=[];perimeter=orthogonalPerimeter;outlineConnect=0;targetShapes=umlLifeline;portConstraint=eastwest;newEdgeStyle={&quot;edgeStyle&quot;:&quot;elbowEdgeStyle&quot;,&quot;elbow&quot;:&quot;vertical&quot;,&quot;curved&quot;:0,&quot;rounded&quot;:0};" vertex="1" parent="nFy5Mc15L_o9c_TITV0G-25">
          <mxGeometry x="45" y="800" width="10" height="60" as="geometry" />
        </mxCell>
        <mxCell id="nFy5Mc15L_o9c_TITV0G-30" value="Employee&lt;br&gt;Constraint" style="shape=umlLifeline;perimeter=lifelinePerimeter;whiteSpace=wrap;html=1;container=0;dropTarget=0;collapsible=0;recursiveResize=0;outlineConnect=0;portConstraint=eastwest;newEdgeStyle={&quot;edgeStyle&quot;:&quot;elbowEdgeStyle&quot;,&quot;elbow&quot;:&quot;vertical&quot;,&quot;curved&quot;:0,&quot;rounded&quot;:0};" vertex="1" parent="1">
          <mxGeometry x="500" y="40" width="100" height="1450" as="geometry" />
        </mxCell>
        <mxCell id="nFy5Mc15L_o9c_TITV0G-31" value="" style="html=1;points=[];perimeter=orthogonalPerimeter;outlineConnect=0;targetShapes=umlLifeline;portConstraint=eastwest;newEdgeStyle={&quot;edgeStyle&quot;:&quot;elbowEdgeStyle&quot;,&quot;elbow&quot;:&quot;vertical&quot;,&quot;curved&quot;:0,&quot;rounded&quot;:0};" vertex="1" parent="nFy5Mc15L_o9c_TITV0G-30">
          <mxGeometry x="45" y="740" width="10" height="60" as="geometry" />
        </mxCell>
        <mxCell id="nFy5Mc15L_o9c_TITV0G-32" value="DriverShift" style="shape=umlLifeline;perimeter=lifelinePerimeter;whiteSpace=wrap;html=1;container=0;dropTarget=0;collapsible=0;recursiveResize=0;outlineConnect=0;portConstraint=eastwest;newEdgeStyle={&quot;edgeStyle&quot;:&quot;elbowEdgeStyle&quot;,&quot;elbow&quot;:&quot;vertical&quot;,&quot;curved&quot;:0,&quot;rounded&quot;:0};" vertex="1" parent="1">
          <mxGeometry x="620" y="40" width="100" height="1450" as="geometry" />
        </mxCell>
        <mxCell id="nFy5Mc15L_o9c_TITV0G-33" value="" style="html=1;points=[];perimeter=orthogonalPerimeter;outlineConnect=0;targetShapes=umlLifeline;portConstraint=eastwest;newEdgeStyle={&quot;edgeStyle&quot;:&quot;elbowEdgeStyle&quot;,&quot;elbow&quot;:&quot;vertical&quot;,&quot;curved&quot;:0,&quot;rounded&quot;:0};" vertex="1" parent="nFy5Mc15L_o9c_TITV0G-32">
          <mxGeometry x="45" y="980" width="10" height="60" as="geometry" />
        </mxCell>
        <mxCell id="nFy5Mc15L_o9c_TITV0G-34" value="" style="html=1;points=[];perimeter=orthogonalPerimeter;outlineConnect=0;targetShapes=umlLifeline;portConstraint=eastwest;newEdgeStyle={&quot;edgeStyle&quot;:&quot;elbowEdgeStyle&quot;,&quot;elbow&quot;:&quot;vertical&quot;,&quot;curved&quot;:0,&quot;rounded&quot;:0};" vertex="1" parent="nFy5Mc15L_o9c_TITV0G-32">
          <mxGeometry x="45" y="1120" width="10" height="30" as="geometry" />
        </mxCell>
        <mxCell id="nFy5Mc15L_o9c_TITV0G-35" value="" style="html=1;points=[];perimeter=orthogonalPerimeter;outlineConnect=0;targetShapes=umlLifeline;portConstraint=eastwest;newEdgeStyle={&quot;edgeStyle&quot;:&quot;elbowEdgeStyle&quot;,&quot;elbow&quot;:&quot;vertical&quot;,&quot;curved&quot;:0,&quot;rounded&quot;:0};" vertex="1" parent="nFy5Mc15L_o9c_TITV0G-32">
          <mxGeometry x="45" y="1160" width="10" height="30" as="geometry" />
        </mxCell>
        <mxCell id="nFy5Mc15L_o9c_TITV0G-36" value="" style="html=1;points=[];perimeter=orthogonalPerimeter;outlineConnect=0;targetShapes=umlLifeline;portConstraint=eastwest;newEdgeStyle={&quot;edgeStyle&quot;:&quot;elbowEdgeStyle&quot;,&quot;elbow&quot;:&quot;vertical&quot;,&quot;curved&quot;:0,&quot;rounded&quot;:0};" vertex="1" parent="nFy5Mc15L_o9c_TITV0G-32">
          <mxGeometry x="45" y="1280" width="10" height="30" as="geometry" />
        </mxCell>
        <mxCell id="nFy5Mc15L_o9c_TITV0G-37" value="1.4:getType()" style="html=1;verticalAlign=bottom;endArrow=block;edgeStyle=elbowEdgeStyle;elbow=vertical;curved=0;rounded=0;" edge="1" parent="1" source="nFy5Mc15L_o9c_TITV0G-13" target="nFy5Mc15L_o9c_TITV0G-26">
          <mxGeometry x="-0.1064" relative="1" as="geometry">
            <mxPoint x="190" y="295" as="sourcePoint" />
            <Array as="points">
              <mxPoint x="270" y="260" />
              <mxPoint x="340" y="250" />
              <mxPoint x="350" y="240" />
              <mxPoint x="330" y="340" />
              <mxPoint x="300" y="330" />
            </Array>
            <mxPoint x="420" y="295" as="targetPoint" />
            <mxPoint as="offset" />
          </mxGeometry>
        </mxCell>
        <mxCell id="nFy5Mc15L_o9c_TITV0G-38" value="1.7:getEmployees()" style="html=1;verticalAlign=bottom;endArrow=block;edgeStyle=elbowEdgeStyle;elbow=vertical;curved=0;rounded=0;" edge="1" parent="1" source="nFy5Mc15L_o9c_TITV0G-13" target="nFy5Mc15L_o9c_TITV0G-20">
          <mxGeometry x="-0.1167" relative="1" as="geometry">
            <mxPoint x="190" y="400" as="sourcePoint" />
            <Array as="points">
              <mxPoint x="280" y="390" />
              <mxPoint x="250" y="380" />
              <mxPoint x="270" y="370" />
              <mxPoint x="250" y="400" />
            </Array>
            <mxPoint x="300" y="400" as="targetPoint" />
            <mxPoint as="offset" />
          </mxGeometry>
        </mxCell>
        <mxCell id="nFy5Mc15L_o9c_TITV0G-39" value="" style="html=1;verticalAlign=bottom;endArrow=open;dashed=1;endSize=8;edgeStyle=elbowEdgeStyle;elbow=vertical;curved=0;rounded=0;" edge="1" parent="1" source="nFy5Mc15L_o9c_TITV0G-20" target="nFy5Mc15L_o9c_TITV0G-13">
          <mxGeometry relative="1" as="geometry">
            <mxPoint x="190" y="380" as="targetPoint" />
            <Array as="points">
              <mxPoint x="260" y="400" />
              <mxPoint x="280" y="390" />
              <mxPoint x="230" y="420" />
              <mxPoint x="250" y="430" />
            </Array>
            <mxPoint x="300" y="380" as="sourcePoint" />
          </mxGeometry>
        </mxCell>
        <mxCell id="nFy5Mc15L_o9c_TITV0G-40" value="&lt;span style=&quot;color: rgb(0, 0, 0); font-family: Helvetica; font-style: normal; font-variant-ligatures: normal; font-variant-caps: normal; font-weight: 400; letter-spacing: normal; orphans: 2; text-align: center; text-indent: 0px; text-transform: none; widows: 2; word-spacing: 0px; -webkit-text-stroke-width: 0px; background-color: rgb(255, 255, 255); text-decoration-thickness: initial; text-decoration-style: initial; text-decoration-color: initial; float: none; display: inline !important;&quot;&gt;&lt;font style=&quot;font-size: 9px;&quot;&gt;1.8:Driver&lt;/font&gt;&lt;/span&gt;" style="text;whiteSpace=wrap;html=1;" vertex="1" parent="1">
          <mxGeometry x="220" y="390" width="30" height="20" as="geometry" />
        </mxCell>
        <mxCell id="nFy5Mc15L_o9c_TITV0G-41" value="loop" style="shape=umlFrame;whiteSpace=wrap;html=1;pointerEvents=0;width=40;height=15;" vertex="1" parent="1">
          <mxGeometry x="110" y="580" width="470" height="340" as="geometry" />
        </mxCell>
        <mxCell id="nFy5Mc15L_o9c_TITV0G-42" value="1.3:getEmployees()" style="html=1;verticalAlign=bottom;endArrow=block;edgeStyle=elbowEdgeStyle;elbow=vertical;curved=0;rounded=0;" edge="1" parent="1" source="nFy5Mc15L_o9c_TITV0G-13" target="nFy5Mc15L_o9c_TITV0G-19">
          <mxGeometry x="0.0667" relative="1" as="geometry">
            <mxPoint x="190" y="260" as="sourcePoint" />
            <Array as="points">
              <mxPoint x="280" y="220" />
              <mxPoint x="260" y="210" />
              <mxPoint x="270" y="200" />
              <mxPoint x="250" y="190" />
              <mxPoint x="290" y="260" />
              <mxPoint x="310" y="260" />
              <mxPoint x="260" y="270" />
              <mxPoint x="295" y="260" />
            </Array>
            <mxPoint x="300" y="260" as="targetPoint" />
            <mxPoint as="offset" />
          </mxGeometry>
        </mxCell>
        <mxCell id="nFy5Mc15L_o9c_TITV0G-43" value="1.9.2:getEmployees()" style="html=1;verticalAlign=bottom;endArrow=block;edgeStyle=elbowEdgeStyle;elbow=vertical;curved=0;rounded=0;" edge="1" parent="1" target="nFy5Mc15L_o9c_TITV0G-21">
          <mxGeometry x="-0.04" relative="1" as="geometry">
            <mxPoint x="190" y="540" as="sourcePoint" />
            <Array as="points">
              <mxPoint x="210" y="540" />
              <mxPoint x="230" y="530" />
              <mxPoint x="250" y="520" />
              <mxPoint x="295" y="480" />
            </Array>
            <mxPoint x="280" y="480" as="targetPoint" />
            <mxPoint as="offset" />
          </mxGeometry>
        </mxCell>
        <mxCell id="nFy5Mc15L_o9c_TITV0G-44" value="" style="html=1;verticalAlign=bottom;endArrow=open;dashed=1;endSize=8;edgeStyle=elbowEdgeStyle;elbow=vertical;curved=0;rounded=0;" edge="1" parent="1" source="nFy5Mc15L_o9c_TITV0G-21" target="nFy5Mc15L_o9c_TITV0G-14">
          <mxGeometry relative="1" as="geometry">
            <mxPoint x="200" y="550" as="targetPoint" />
            <Array as="points">
              <mxPoint x="250" y="550" />
              <mxPoint x="310" y="505" />
            </Array>
            <mxPoint x="300" y="505" as="sourcePoint" />
          </mxGeometry>
        </mxCell>
        <mxCell id="nFy5Mc15L_o9c_TITV0G-45" value="1.8.3:getEmployees()" style="html=1;verticalAlign=bottom;endArrow=block;edgeStyle=elbowEdgeStyle;elbow=vertical;curved=0;rounded=0;" edge="1" parent="1" source="nFy5Mc15L_o9c_TITV0G-14">
          <mxGeometry x="0.0435" relative="1" as="geometry">
            <mxPoint x="200" y="600" as="sourcePoint" />
            <Array as="points">
              <mxPoint x="250" y="600" />
              <mxPoint x="295" y="550" />
            </Array>
            <mxPoint x="305" y="600" as="targetPoint" />
            <mxPoint as="offset" />
          </mxGeometry>
        </mxCell>
        <mxCell id="nFy5Mc15L_o9c_TITV0G-46" value="&lt;div style=&quot;text-align: center;&quot;&gt;&lt;span style=&quot;font-size: 11px; background-color: rgb(255, 255, 255);&quot;&gt;&amp;nbsp; &amp;nbsp; &amp;nbsp; 1.8.4:Employee&lt;/span&gt;&lt;/div&gt;" style="text;whiteSpace=wrap;html=1;" vertex="1" parent="1">
          <mxGeometry x="202.5" y="620" width="110" height="20" as="geometry" />
        </mxCell>
        <mxCell id="nFy5Mc15L_o9c_TITV0G-47" value="1.8.4:getConstraints()" style="html=1;verticalAlign=bottom;endArrow=block;edgeStyle=elbowEdgeStyle;elbow=vertical;curved=0;rounded=0;" edge="1" parent="1" target="nFy5Mc15L_o9c_TITV0G-27">
          <mxGeometry x="0.3333" relative="1" as="geometry">
            <mxPoint x="190" y="660" as="sourcePoint" />
            <Array as="points">
              <mxPoint x="250" y="660" />
              <mxPoint x="295" y="620" />
            </Array>
            <mxPoint x="305" y="660" as="targetPoint" />
            <mxPoint as="offset" />
          </mxGeometry>
        </mxCell>
        <mxCell id="nFy5Mc15L_o9c_TITV0G-48" value="" style="html=1;verticalAlign=bottom;endArrow=open;dashed=1;endSize=8;edgeStyle=elbowEdgeStyle;elbow=vertical;curved=0;rounded=0;" edge="1" parent="1" target="nFy5Mc15L_o9c_TITV0G-14">
          <mxGeometry relative="1" as="geometry">
            <mxPoint x="300" y="680" as="targetPoint" />
            <Array as="points">
              <mxPoint x="365" y="680" />
            </Array>
            <mxPoint x="420" y="680" as="sourcePoint" />
          </mxGeometry>
        </mxCell>
        <mxCell id="nFy5Mc15L_o9c_TITV0G-49" value="&lt;div style=&quot;text-align: center;&quot;&gt;&lt;span style=&quot;font-size: 11px; background-color: rgb(255, 255, 255);&quot;&gt;1.8.5: Constraint&lt;/span&gt;&lt;/div&gt;" style="text;whiteSpace=wrap;html=1;" vertex="1" parent="1">
          <mxGeometry x="320" y="660" width="95" height="20" as="geometry" />
        </mxCell>
        <mxCell id="nFy5Mc15L_o9c_TITV0G-50" value="1.8.6:getConstraints()" style="html=1;verticalAlign=bottom;endArrow=block;edgeStyle=elbowEdgeStyle;elbow=vertical;curved=0;rounded=0;" edge="1" parent="1" source="nFy5Mc15L_o9c_TITV0G-14">
          <mxGeometry x="0.2593" relative="1" as="geometry">
            <mxPoint x="200" y="730" as="sourcePoint" />
            <Array as="points">
              <mxPoint x="250" y="730" />
              <mxPoint x="295" y="690" />
            </Array>
            <mxPoint x="420" y="730" as="targetPoint" />
            <mxPoint as="offset" />
          </mxGeometry>
        </mxCell>
        <mxCell id="nFy5Mc15L_o9c_TITV0G-51" value="" style="html=1;verticalAlign=bottom;endArrow=open;dashed=1;endSize=8;edgeStyle=elbowEdgeStyle;elbow=vertical;curved=0;rounded=0;" edge="1" parent="1" source="nFy5Mc15L_o9c_TITV0G-28" target="nFy5Mc15L_o9c_TITV0G-14">
          <mxGeometry relative="1" as="geometry">
            <mxPoint x="195" y="760" as="targetPoint" />
            <Array as="points">
              <mxPoint x="370" y="760" />
            </Array>
            <mxPoint x="410" y="760" as="sourcePoint" />
          </mxGeometry>
        </mxCell>
        <mxCell id="nFy5Mc15L_o9c_TITV0G-52" value="&lt;div style=&quot;text-align: center;&quot;&gt;&lt;span style=&quot;font-size: 11px; background-color: rgb(255, 255, 255);&quot;&gt;1.8.7:Constraint&lt;/span&gt;&lt;/div&gt;" style="text;whiteSpace=wrap;html=1;" vertex="1" parent="1">
          <mxGeometry x="330" y="740" width="60" height="20" as="geometry" />
        </mxCell>
        <mxCell id="nFy5Mc15L_o9c_TITV0G-53" value="1.8.7:getShiftId()" style="html=1;verticalAlign=bottom;endArrow=block;edgeStyle=elbowEdgeStyle;elbow=vertical;curved=0;rounded=0;" edge="1" parent="1" source="nFy5Mc15L_o9c_TITV0G-14" target="nFy5Mc15L_o9c_TITV0G-31">
          <mxGeometry x="0.4085" relative="1" as="geometry">
            <mxPoint x="195" y="800" as="sourcePoint" />
            <Array as="points">
              <mxPoint x="255" y="800" />
              <mxPoint x="300" y="760" />
            </Array>
            <mxPoint x="425" y="800" as="targetPoint" />
            <mxPoint as="offset" />
          </mxGeometry>
        </mxCell>
        <mxCell id="nFy5Mc15L_o9c_TITV0G-54" value="" style="html=1;verticalAlign=bottom;endArrow=open;dashed=1;endSize=8;edgeStyle=elbowEdgeStyle;elbow=vertical;curved=0;rounded=0;" edge="1" parent="1" source="nFy5Mc15L_o9c_TITV0G-31" target="nFy5Mc15L_o9c_TITV0G-14">
          <mxGeometry relative="1" as="geometry">
            <mxPoint x="310" y="830" as="targetPoint" />
            <Array as="points">
              <mxPoint x="490" y="830" />
            </Array>
            <mxPoint x="540" y="830" as="sourcePoint" />
          </mxGeometry>
        </mxCell>
        <mxCell id="nFy5Mc15L_o9c_TITV0G-55" value="&lt;span style=&quot;font-size: 11px; background-color: rgb(255, 255, 255);&quot;&gt;1.8.8:ShiftId&lt;/span&gt;" style="text;whiteSpace=wrap;html=1;" vertex="1" parent="1">
          <mxGeometry x="337.5" y="810" width="60" height="20" as="geometry" />
        </mxCell>
        <mxCell id="nFy5Mc15L_o9c_TITV0G-56" value="1.8.9:isHRManager()" style="html=1;verticalAlign=bottom;endArrow=block;edgeStyle=elbowEdgeStyle;elbow=vertical;curved=0;rounded=0;" edge="1" parent="1" source="nFy5Mc15L_o9c_TITV0G-14" target="nFy5Mc15L_o9c_TITV0G-29">
          <mxGeometry x="0.3043" relative="1" as="geometry">
            <mxPoint x="195" y="860" as="sourcePoint" />
            <Array as="points">
              <mxPoint x="255" y="860" />
              <mxPoint x="300" y="820" />
            </Array>
            <mxPoint x="400" y="860" as="targetPoint" />
            <mxPoint as="offset" />
          </mxGeometry>
        </mxCell>
        <mxCell id="nFy5Mc15L_o9c_TITV0G-57" value="" style="html=1;verticalAlign=bottom;endArrow=open;dashed=1;endSize=8;edgeStyle=elbowEdgeStyle;elbow=vertical;curved=0;rounded=0;" edge="1" parent="1" target="nFy5Mc15L_o9c_TITV0G-14">
          <mxGeometry relative="1" as="geometry">
            <mxPoint x="300" y="880" as="targetPoint" />
            <Array as="points">
              <mxPoint x="365" y="880" />
            </Array>
            <mxPoint x="420" y="880" as="sourcePoint" />
          </mxGeometry>
        </mxCell>
        <mxCell id="nFy5Mc15L_o9c_TITV0G-58" value="loop" style="shape=umlFrame;whiteSpace=wrap;html=1;pointerEvents=0;width=40;height=15;" vertex="1" parent="1">
          <mxGeometry x="150" y="700" width="410" height="210" as="geometry" />
        </mxCell>
        <mxCell id="nFy5Mc15L_o9c_TITV0G-59" value="1.10:getSchedulesDrivers()" style="html=1;verticalAlign=bottom;endArrow=block;edgeStyle=elbowEdgeStyle;elbow=vertical;curved=0;rounded=0;" edge="1" parent="1" source="nFy5Mc15L_o9c_TITV0G-13" target="nFy5Mc15L_o9c_TITV0G-33">
          <mxGeometry x="0.25" relative="1" as="geometry">
            <mxPoint x="190" y="990" as="sourcePoint" />
            <Array as="points">
              <mxPoint x="460" y="1050" />
              <mxPoint x="400" y="1040" />
              <mxPoint x="295" y="990" />
            </Array>
            <mxPoint x="660" y="990" as="targetPoint" />
            <mxPoint as="offset" />
          </mxGeometry>
        </mxCell>
        <mxCell id="nFy5Mc15L_o9c_TITV0G-60" value="" style="html=1;verticalAlign=bottom;endArrow=open;dashed=1;endSize=8;edgeStyle=elbowEdgeStyle;elbow=vertical;curved=0;rounded=0;" edge="1" parent="1" source="nFy5Mc15L_o9c_TITV0G-33" target="nFy5Mc15L_o9c_TITV0G-13">
          <mxGeometry relative="1" as="geometry">
            <mxPoint x="200" y="1020" as="targetPoint" />
            <Array as="points">
              <mxPoint x="400" y="1060" />
              <mxPoint x="270" y="1070" />
              <mxPoint x="615" y="1020" />
            </Array>
            <mxPoint x="670" y="1020" as="sourcePoint" />
          </mxGeometry>
        </mxCell>
        <mxCell id="nFy5Mc15L_o9c_TITV0G-61" value="" style="html=1;verticalAlign=bottom;endArrow=open;dashed=1;endSize=8;edgeStyle=elbowEdgeStyle;elbow=vertical;curved=0;rounded=0;" edge="1" parent="1" source="nFy5Mc15L_o9c_TITV0G-34" target="nFy5Mc15L_o9c_TITV0G-13">
          <mxGeometry relative="1" as="geometry">
            <mxPoint x="190" y="1170" as="targetPoint" />
            <Array as="points">
              <mxPoint x="480" y="1180" />
              <mxPoint x="390" y="1170" />
              <mxPoint x="360" y="1140" />
            </Array>
            <mxPoint x="660" y="1170" as="sourcePoint" />
          </mxGeometry>
        </mxCell>
        <mxCell id="nFy5Mc15L_o9c_TITV0G-62" value="1.13:getDriversCount()" style="html=1;verticalAlign=bottom;endArrow=block;edgeStyle=elbowEdgeStyle;elbow=vertical;curved=0;rounded=0;" edge="1" parent="1" source="nFy5Mc15L_o9c_TITV0G-13" target="nFy5Mc15L_o9c_TITV0G-34">
          <mxGeometry x="0.2041" relative="1" as="geometry">
            <mxPoint x="195" y="1120" as="sourcePoint" />
            <Array as="points">
              <mxPoint x="600" y="1170" />
              <mxPoint x="440" y="1160" />
              <mxPoint x="410" y="1120" />
              <mxPoint x="305" y="1070" />
            </Array>
            <mxPoint x="670" y="1120" as="targetPoint" />
            <mxPoint as="offset" />
          </mxGeometry>
        </mxCell>
        <mxCell id="nFy5Mc15L_o9c_TITV0G-63" value="1.15:getSchedulesDrivers()" style="html=1;verticalAlign=bottom;endArrow=block;edgeStyle=elbowEdgeStyle;elbow=vertical;curved=0;rounded=0;" edge="1" parent="1" source="nFy5Mc15L_o9c_TITV0G-13" target="nFy5Mc15L_o9c_TITV0G-35">
          <mxGeometry x="-0.2356" relative="1" as="geometry">
            <mxPoint x="190" y="1210" as="sourcePoint" />
            <Array as="points">
              <mxPoint x="405" y="1210" />
              <mxPoint x="300" y="1160" />
            </Array>
            <mxPoint x="650" y="1210" as="targetPoint" />
            <mxPoint as="offset" />
          </mxGeometry>
        </mxCell>
        <mxCell id="nFy5Mc15L_o9c_TITV0G-64" value="" style="html=1;verticalAlign=bottom;endArrow=open;dashed=1;endSize=8;edgeStyle=elbowEdgeStyle;elbow=vertical;curved=0;rounded=0;" edge="1" parent="1" source="nFy5Mc15L_o9c_TITV0G-35" target="nFy5Mc15L_o9c_TITV0G-13">
          <mxGeometry relative="1" as="geometry">
            <mxPoint x="195" y="1220" as="targetPoint" />
            <Array as="points">
              <mxPoint x="410" y="1220" />
              <mxPoint x="280" y="1230" />
              <mxPoint x="625" y="1180" />
            </Array>
            <mxPoint x="660" y="1220" as="sourcePoint" />
          </mxGeometry>
        </mxCell>
        <mxCell id="nFy5Mc15L_o9c_TITV0G-65" value="1.13:addDriverSchedule(employeeId)" style="html=1;verticalAlign=bottom;endArrow=block;edgeStyle=elbowEdgeStyle;elbow=vertical;curved=0;rounded=0;" edge="1" parent="1" source="nFy5Mc15L_o9c_TITV0G-13" target="nFy5Mc15L_o9c_TITV0G-36">
          <mxGeometry x="0.2041" relative="1" as="geometry">
            <mxPoint x="200" y="1300" as="sourcePoint" />
            <Array as="points">
              <mxPoint x="570" y="1330" />
              <mxPoint x="620" y="1320" />
              <mxPoint x="445" y="1300" />
              <mxPoint x="415" y="1260" />
              <mxPoint x="310" y="1210" />
            </Array>
            <mxPoint x="650" y="1300" as="targetPoint" />
            <mxPoint as="offset" />
          </mxGeometry>
        </mxCell>
        <mxCell id="nFy5Mc15L_o9c_TITV0G-66" value="" style="html=1;verticalAlign=bottom;endArrow=open;dashed=1;endSize=8;edgeStyle=elbowEdgeStyle;elbow=vertical;curved=0;rounded=0;" edge="1" parent="1" source="nFy5Mc15L_o9c_TITV0G-36" target="nFy5Mc15L_o9c_TITV0G-13">
          <mxGeometry relative="1" as="geometry">
            <mxPoint x="195" y="1320" as="targetPoint" />
            <Array as="points">
              <mxPoint x="530" y="1340" />
              <mxPoint x="510" y="1330" />
              <mxPoint x="420" y="1320" />
              <mxPoint x="290" y="1330" />
              <mxPoint x="635" y="1280" />
            </Array>
            <mxPoint x="660" y="1320" as="sourcePoint" />
          </mxGeometry>
        </mxCell>
        <mxCell id="nFy5Mc15L_o9c_TITV0G-67" value="alt" style="shape=umlFrame;whiteSpace=wrap;html=1;pointerEvents=0;width=45;height=15;" vertex="1" parent="1">
          <mxGeometry x="12.5" y="140" width="977.5" height="1320" as="geometry" />
        </mxCell>
        <mxCell id="nFy5Mc15L_o9c_TITV0G-68" value="" style="html=1;verticalAlign=bottom;endArrow=open;dashed=1;endSize=8;edgeStyle=elbowEdgeStyle;elbow=vertical;curved=0;rounded=0;" edge="1" parent="1" target="nFy5Mc15L_o9c_TITV0G-11">
          <mxGeometry relative="1" as="geometry">
            <mxPoint x="185" y="160" as="targetPoint" />
            <Array as="points">
              <mxPoint x="230" y="150" />
              <mxPoint x="260" y="160" />
              <mxPoint x="240" y="170" />
            </Array>
            <mxPoint x="305" y="160" as="sourcePoint" />
          </mxGeometry>
        </mxCell>
        <mxCell id="nFy5Mc15L_o9c_TITV0G-69" value="&lt;div style=&quot;text-align: center;&quot;&gt;&lt;span style=&quot;background-color: rgb(255, 255, 255);&quot;&gt;&lt;font style=&quot;font-size: 8px;&quot;&gt;1.2: Return Error&lt;/font&gt;&lt;/span&gt;&lt;/div&gt;" style="text;whiteSpace=wrap;html=1;" vertex="1" parent="1">
          <mxGeometry x="70" y="150" width="70" height="20" as="geometry" />
        </mxCell>
        <mxCell id="nFy5Mc15L_o9c_TITV0G-70" value="" style="html=1;verticalAlign=bottom;endArrow=open;dashed=1;endSize=8;edgeStyle=elbowEdgeStyle;elbow=vertical;curved=0;rounded=0;" edge="1" parent="1" target="nFy5Mc15L_o9c_TITV0G-11">
          <mxGeometry relative="1" as="geometry">
            <mxPoint x="162.5" y="290" as="targetPoint" />
            <Array as="points">
              <mxPoint x="380" y="290" />
              <mxPoint x="260" y="280" />
              <mxPoint x="100" y="270" />
              <mxPoint x="90" y="280" />
              <mxPoint x="70" y="290" />
              <mxPoint x="307.5" y="360" />
              <mxPoint x="307.5" y="390" />
            </Array>
            <mxPoint x="420" y="290" as="sourcePoint" />
          </mxGeometry>
        </mxCell>
        <mxCell id="nFy5Mc15L_o9c_TITV0G-71" value="&lt;div style=&quot;text-align: center;&quot;&gt;&lt;span style=&quot;background-color: rgb(255, 255, 255);&quot;&gt;&lt;font style=&quot;font-size: 9px;&quot;&gt;1.5: Return Error&lt;/font&gt;&lt;/span&gt;&lt;/div&gt;" style="text;whiteSpace=wrap;html=1;" vertex="1" parent="1">
          <mxGeometry x="65" y="250" width="80" height="20" as="geometry" />
        </mxCell>
        <mxCell id="nFy5Mc15L_o9c_TITV0G-72" value="&lt;span style=&quot;color: rgb(0, 0, 0); font-family: Helvetica; font-style: normal; font-variant-ligatures: normal; font-variant-caps: normal; font-weight: 400; letter-spacing: normal; orphans: 2; text-align: center; text-indent: 0px; text-transform: none; widows: 2; word-spacing: 0px; -webkit-text-stroke-width: 0px; background-color: rgb(255, 255, 255); text-decoration-thickness: initial; text-decoration-style: initial; text-decoration-color: initial; float: none; display: inline !important;&quot;&gt;&lt;font style=&quot;font-size: 8px;&quot;&gt;[hasEmployee]&lt;/font&gt;&lt;br&gt;&lt;/span&gt;" style="text;whiteSpace=wrap;html=1;" vertex="1" parent="1">
          <mxGeometry x="283.75" y="130" width="60" height="20" as="geometry" />
        </mxCell>
        <mxCell id="nFy5Mc15L_o9c_TITV0G-73" value="&lt;span style=&quot;color: rgb(0, 0, 0); font-family: Helvetica; font-style: normal; font-variant-ligatures: normal; font-variant-caps: normal; font-weight: 400; letter-spacing: normal; orphans: 2; text-align: center; text-indent: 0px; text-transform: none; widows: 2; word-spacing: 0px; -webkit-text-stroke-width: 0px; background-color: rgb(255, 255, 255); text-decoration-thickness: initial; text-decoration-style: initial; text-decoration-color: initial; float: none; display: inline !important;&quot;&gt;&lt;span style=&quot;font-size: 8px;&quot;&gt;[type==&quot;driver&quot;]&lt;/span&gt;&lt;br&gt;&lt;/span&gt;" style="text;whiteSpace=wrap;html=1;" vertex="1" parent="1">
          <mxGeometry x="360" y="200" width="60" height="40" as="geometry" />
        </mxCell>
        <mxCell id="nFy5Mc15L_o9c_TITV0G-74" value="alt" style="shape=umlFrame;whiteSpace=wrap;html=1;pointerEvents=0;width=50;height=20;" vertex="1" parent="1">
          <mxGeometry x="12.5" y="270" width="967.5" height="1180" as="geometry" />
        </mxCell>
        <mxCell id="nFy5Mc15L_o9c_TITV0G-75" value="&lt;span style=&quot;color: rgb(0, 0, 0); font-family: Helvetica; font-style: normal; font-variant-ligatures: normal; font-variant-caps: normal; font-weight: 400; letter-spacing: normal; orphans: 2; text-align: center; text-indent: 0px; text-transform: none; widows: 2; word-spacing: 0px; -webkit-text-stroke-width: 0px; background-color: rgb(255, 255, 255); text-decoration-thickness: initial; text-decoration-style: initial; text-decoration-color: initial; float: none; display: inline !important;&quot;&gt;[hasShift]&lt;br&gt;&lt;/span&gt;" style="text;whiteSpace=wrap;html=1;" vertex="1" parent="1">
          <mxGeometry x="160" y="320" width="60" height="25" as="geometry" />
        </mxCell>
        <mxCell id="nFy5Mc15L_o9c_TITV0G-76" value="alt" style="shape=umlFrame;whiteSpace=wrap;html=1;pointerEvents=0;width=40;height=25;" vertex="1" parent="1">
          <mxGeometry x="30" y="945" width="930" height="485" as="geometry" />
        </mxCell>
        <mxCell id="nFy5Mc15L_o9c_TITV0G-77" value="" style="html=1;verticalAlign=bottom;endArrow=open;dashed=1;endSize=8;edgeStyle=elbowEdgeStyle;elbow=vertical;curved=0;rounded=0;" edge="1" parent="1" source="nFy5Mc15L_o9c_TITV0G-13" target="nFy5Mc15L_o9c_TITV0G-11">
          <mxGeometry relative="1" as="geometry">
            <mxPoint x="60" y="340" as="targetPoint" />
            <Array as="points">
              <mxPoint x="160" y="350" />
              <mxPoint x="140" y="370" />
            </Array>
            <mxPoint x="160" y="360" as="sourcePoint" />
          </mxGeometry>
        </mxCell>
        <mxCell id="nFy5Mc15L_o9c_TITV0G-78" value="&lt;div style=&quot;text-align: center;&quot;&gt;&lt;span style=&quot;background-color: rgb(255, 255, 255);&quot;&gt;&lt;font style=&quot;font-size: 9px;&quot;&gt;1.6: Return Error&lt;/font&gt;&lt;/span&gt;&lt;/div&gt;" style="text;whiteSpace=wrap;html=1;" vertex="1" parent="1">
          <mxGeometry x="67.5" y="330" width="80" height="20" as="geometry" />
        </mxCell>
        <mxCell id="nFy5Mc15L_o9c_TITV0G-79" value="alt" style="shape=umlFrame;whiteSpace=wrap;html=1;pointerEvents=0;width=40;height=25;" vertex="1" parent="1">
          <mxGeometry x="30" y="450" width="930" height="480" as="geometry" />
        </mxCell>
        <mxCell id="nFy5Mc15L_o9c_TITV0G-80" value="&lt;div style=&quot;text-align: center;&quot;&gt;&lt;span style=&quot;font-size: 11px; background-color: rgb(255, 255, 255);&quot;&gt;[hasEmployee]&lt;/span&gt;&lt;/div&gt;" style="text;whiteSpace=wrap;html=1;" vertex="1" parent="1">
          <mxGeometry x="170" y="965" width="72.5" height="20" as="geometry" />
        </mxCell>
        <mxCell id="nFy5Mc15L_o9c_TITV0G-81" value="" style="html=1;verticalAlign=bottom;endArrow=open;dashed=1;endSize=8;edgeStyle=elbowEdgeStyle;elbow=vertical;curved=0;rounded=0;" edge="1" parent="1" source="nFy5Mc15L_o9c_TITV0G-13" target="nFy5Mc15L_o9c_TITV0G-11">
          <mxGeometry relative="1" as="geometry">
            <mxPoint x="52.5" y="1000" as="targetPoint" />
            <Array as="points">
              <mxPoint x="140" y="1000" />
              <mxPoint x="110" y="1020" />
              <mxPoint x="127.5" y="1000" />
            </Array>
            <mxPoint x="167.5" y="1000" as="sourcePoint" />
          </mxGeometry>
        </mxCell>
        <mxCell id="nFy5Mc15L_o9c_TITV0G-82" value="&lt;div style=&quot;text-align: center;&quot;&gt;&lt;span style=&quot;font-size: 11px; background-color: rgb(255, 255, 255);&quot;&gt;1.10:Return Error&lt;/span&gt;&lt;/div&gt;" style="text;whiteSpace=wrap;html=1;" vertex="1" parent="1">
          <mxGeometry x="77.5" y="965" width="70" height="35" as="geometry" />
        </mxCell>
        <mxCell id="nFy5Mc15L_o9c_TITV0G-83" value="&lt;div style=&quot;text-align: center;&quot;&gt;&lt;span style=&quot;font-size: 11px; background-color: rgb(255, 255, 255);&quot;&gt;[employeeScheduled]&lt;/span&gt;&lt;/div&gt;" style="text;whiteSpace=wrap;html=1;" vertex="1" parent="1">
          <mxGeometry x="170" y="1070" width="67.5" height="20" as="geometry" />
        </mxCell>
        <mxCell id="nFy5Mc15L_o9c_TITV0G-84" value="" style="html=1;verticalAlign=bottom;endArrow=open;dashed=1;endSize=8;edgeStyle=elbowEdgeStyle;elbow=vertical;curved=0;rounded=0;" edge="1" parent="1" source="nFy5Mc15L_o9c_TITV0G-13" target="nFy5Mc15L_o9c_TITV0G-11">
          <mxGeometry relative="1" as="geometry">
            <mxPoint x="-40" y="1104.5" as="targetPoint" />
            <Array as="points">
              <mxPoint x="120" y="1110" />
              <mxPoint x="175" y="1104.5" />
              <mxPoint x="45" y="1114.5" />
              <mxPoint x="390" y="1064.5" />
            </Array>
            <mxPoint x="160" y="1104.5" as="sourcePoint" />
          </mxGeometry>
        </mxCell>
        <mxCell id="nFy5Mc15L_o9c_TITV0G-85" value="&lt;div style=&quot;text-align: center;&quot;&gt;&lt;span style=&quot;font-size: 11px; background-color: rgb(255, 255, 255);&quot;&gt;&amp;nbsp;[driverCount= schedules]&lt;/span&gt;&lt;/div&gt;" style="text;whiteSpace=wrap;html=1;" vertex="1" parent="1">
          <mxGeometry x="165" y="1240" width="67.5" height="40" as="geometry" />
        </mxCell>
        <mxCell id="nFy5Mc15L_o9c_TITV0G-86" value="" style="html=1;verticalAlign=bottom;endArrow=open;dashed=1;endSize=8;edgeStyle=elbowEdgeStyle;elbow=vertical;curved=0;rounded=0;" edge="1" parent="1" source="nFy5Mc15L_o9c_TITV0G-13" target="nFy5Mc15L_o9c_TITV0G-11">
          <mxGeometry relative="1" as="geometry">
            <mxPoint x="70" y="1280.5" as="targetPoint" />
            <Array as="points">
              <mxPoint x="120" y="1290" />
              <mxPoint x="190" y="1280" />
              <mxPoint x="60" y="1290" />
              <mxPoint x="405" y="1240" />
            </Array>
            <mxPoint x="175" y="1280" as="sourcePoint" />
          </mxGeometry>
        </mxCell>
        <mxCell id="nFy5Mc15L_o9c_TITV0G-87" value="alt" style="shape=umlFrame;whiteSpace=wrap;html=1;pointerEvents=0;width=40;height=25;" vertex="1" parent="1">
          <mxGeometry x="40" y="1070" width="910" height="350" as="geometry" />
        </mxCell>
        <mxCell id="nFy5Mc15L_o9c_TITV0G-88" value="alt" style="shape=umlFrame;whiteSpace=wrap;html=1;pointerEvents=0;width=28;height=20;" vertex="1" parent="1">
          <mxGeometry x="46.25" y="1240" width="893.75" height="170" as="geometry" />
        </mxCell>
        <mxCell id="nFy5Mc15L_o9c_TITV0G-89" value="&lt;div style=&quot;text-align: center;&quot;&gt;&lt;span style=&quot;font-size: 11px; background-color: rgb(255, 255, 255);&quot;&gt;1.12: Return Error&lt;/span&gt;&lt;/div&gt;" style="text;whiteSpace=wrap;html=1;" vertex="1" parent="1">
          <mxGeometry x="75" y="1250" width="70" height="40" as="geometry" />
        </mxCell>
        <mxCell id="nFy5Mc15L_o9c_TITV0G-90" value="&lt;span style=&quot;color: rgb(0, 0, 0); font-family: Helvetica; font-size: 11px; font-style: normal; font-variant-ligatures: normal; font-variant-caps: normal; font-weight: 400; letter-spacing: normal; orphans: 2; text-align: center; text-indent: 0px; text-transform: none; widows: 2; word-spacing: 0px; -webkit-text-stroke-width: 0px; background-color: rgb(255, 255, 255); text-decoration-thickness: initial; text-decoration-style: initial; text-decoration-color: initial; float: none; display: inline !important;&quot;&gt;1.9: available&lt;br&gt;EmployeesId(shiftId)&lt;/span&gt;" style="text;whiteSpace=wrap;html=1;" vertex="1" parent="1">
          <mxGeometry x="232.5" y="410" width="110" height="20" as="geometry" />
        </mxCell>
        <mxCell id="nFy5Mc15L_o9c_TITV0G-91" value="DALFacade" style="shape=umlLifeline;perimeter=lifelinePerimeter;whiteSpace=wrap;html=1;container=0;dropTarget=0;collapsible=0;recursiveResize=0;outlineConnect=0;portConstraint=eastwest;newEdgeStyle={&quot;edgeStyle&quot;:&quot;elbowEdgeStyle&quot;,&quot;elbow&quot;:&quot;vertical&quot;,&quot;curved&quot;:0,&quot;rounded&quot;:0};fillColor=#f8cecc;strokeColor=#b85450;" vertex="1" parent="1">
          <mxGeometry x="740" y="40" width="100" height="1450" as="geometry" />
        </mxCell>
        <mxCell id="nFy5Mc15L_o9c_TITV0G-92" value="" style="html=1;points=[];perimeter=orthogonalPerimeter;outlineConnect=0;targetShapes=umlLifeline;portConstraint=eastwest;newEdgeStyle={&quot;edgeStyle&quot;:&quot;elbowEdgeStyle&quot;,&quot;elbow&quot;:&quot;vertical&quot;,&quot;curved&quot;:0,&quot;rounded&quot;:0};fillColor=#f8cecc;strokeColor=#b85450;" vertex="1" parent="nFy5Mc15L_o9c_TITV0G-91">
          <mxGeometry x="45" y="1310" width="10" height="40" as="geometry" />
        </mxCell>
        <mxCell id="nFy5Mc15L_o9c_TITV0G-93" value="1.14:&amp;nbsp;insertDriverSchedule(Driver ds,Driver d)" style="html=1;verticalAlign=bottom;endArrow=block;edgeStyle=elbowEdgeStyle;elbow=vertical;curved=0;rounded=0;" edge="1" parent="1" source="nFy5Mc15L_o9c_TITV0G-13" target="nFy5Mc15L_o9c_TITV0G-92">
          <mxGeometry x="0.2041" relative="1" as="geometry">
            <mxPoint x="190" y="1360" as="sourcePoint" />
            <Array as="points">
              <mxPoint x="530" y="1370" />
              <mxPoint x="445" y="1360" />
              <mxPoint x="415" y="1320" />
              <mxPoint x="310" y="1270" />
            </Array>
            <mxPoint x="665" y="1360" as="targetPoint" />
            <mxPoint as="offset" />
          </mxGeometry>
        </mxCell>
        <mxCell id="nFy5Mc15L_o9c_TITV0G-94" value="" style="html=1;verticalAlign=bottom;endArrow=open;dashed=1;endSize=8;edgeStyle=elbowEdgeStyle;elbow=vertical;curved=0;rounded=0;" edge="1" parent="1" target="nFy5Mc15L_o9c_TITV0G-13">
          <mxGeometry relative="1" as="geometry">
            <mxPoint x="300" y="1380" as="targetPoint" />
            <Array as="points">
              <mxPoint x="535" y="1380" />
              <mxPoint x="405" y="1390" />
              <mxPoint x="750" y="1340" />
            </Array>
            <mxPoint x="780" y="1380" as="sourcePoint" />
          </mxGeometry>
        </mxCell>
        <mxCell id="nFy5Mc15L_o9c_TITV0G-95" value="&lt;span style=&quot;color: rgb(0, 0, 0); font-family: Helvetica; font-style: normal; font-variant-ligatures: normal; font-variant-caps: normal; font-weight: 400; letter-spacing: normal; orphans: 2; text-align: center; text-indent: 0px; text-transform: none; widows: 2; word-spacing: 0px; -webkit-text-stroke-width: 0px; background-color: rgb(255, 255, 255); text-decoration-thickness: initial; text-decoration-style: initial; text-decoration-color: initial; float: none; display: inline !important;&quot;&gt;[hasShift]&lt;br&gt;&lt;/span&gt;" style="text;whiteSpace=wrap;html=1;" vertex="1" parent="1">
          <mxGeometry x="160" y="447.5" width="60" height="25" as="geometry" />
        </mxCell>
        <mxCell id="nFy5Mc15L_o9c_TITV0G-96" value="&lt;div style=&quot;text-align: center;&quot;&gt;&lt;span style=&quot;background-color: rgb(255, 255, 255);&quot;&gt;&lt;font style=&quot;font-size: 10px;&quot;&gt;1.9.3: employees map&lt;/font&gt;&lt;/span&gt;&lt;/div&gt;" style="text;whiteSpace=wrap;html=1;" vertex="1" parent="1">
          <mxGeometry x="202.5" y="550" width="115" height="20" as="geometry" />
        </mxCell>
        <mxCell id="nFy5Mc15L_o9c_TITV0G-97" value="1.8.10:isHRManager" style="text;whiteSpace=wrap;html=1;" vertex="1" parent="1">
          <mxGeometry x="300" y="880" width="60" height="20" as="geometry" />
        </mxCell>
        <mxCell id="nFy5Mc15L_o9c_TITV0G-98" value="&lt;div style=&quot;text-align: center;&quot;&gt;&lt;span style=&quot;font-size: 11px; background-color: rgb(255, 255, 255);&quot;&gt;1.11: drivers&#39; schedules map&lt;/span&gt;&lt;/div&gt;" style="text;whiteSpace=wrap;html=1;" vertex="1" parent="1">
          <mxGeometry x="400" y="1060" width="160" height="20" as="geometry" />
        </mxCell>
        <mxCell id="nFy5Mc15L_o9c_TITV0G-99" value="&lt;div style=&quot;text-align: center;&quot;&gt;&lt;span style=&quot;font-size: 11px; background-color: rgb(255, 255, 255);&quot;&gt;1.14: drivers&#39; count on schedule&lt;/span&gt;&lt;/div&gt;" style="text;whiteSpace=wrap;html=1;" vertex="1" parent="1">
          <mxGeometry x="450" y="1177.5" width="160" height="20" as="geometry" />
        </mxCell>
        <mxCell id="nFy5Mc15L_o9c_TITV0G-100" value="&lt;div style=&quot;text-align: center;&quot;&gt;&lt;span style=&quot;font-size: 11px; background-color: rgb(255, 255, 255);&quot;&gt;1.11: drivers&#39; schedules map&lt;/span&gt;&lt;/div&gt;" style="text;whiteSpace=wrap;html=1;" vertex="1" parent="1">
          <mxGeometry x="397.5" y="1220" width="160" height="20" as="geometry" />
        </mxCell>
        <mxCell id="nFy5Mc15L_o9c_TITV0G-101" value="" style="html=1;verticalAlign=bottom;endArrow=open;dashed=1;endSize=8;edgeStyle=elbowEdgeStyle;elbow=vertical;curved=0;rounded=0;" edge="1" parent="1" source="nFy5Mc15L_o9c_TITV0G-22" target="nFy5Mc15L_o9c_TITV0G-14">
          <mxGeometry relative="1" as="geometry">
            <mxPoint x="200" y="620" as="targetPoint" />
            <Array as="points">
              <mxPoint x="250" y="620" />
              <mxPoint x="310" y="575" />
            </Array>
            <mxPoint x="300" y="575" as="sourcePoint" />
          </mxGeometry>
        </mxCell>
        <mxCell id="nFy5Mc15L_o9c_TITV0G-102" value="" style="endArrow=none;dashed=1;html=1;rounded=0;exitX=0.003;exitY=0.027;exitDx=0;exitDy=0;exitPerimeter=0;entryX=0.999;entryY=0.024;entryDx=0;entryDy=0;entryPerimeter=0;" edge="1" parent="1" source="nFy5Mc15L_o9c_TITV0G-67" target="nFy5Mc15L_o9c_TITV0G-67">
          <mxGeometry width="50" height="50" relative="1" as="geometry">
            <mxPoint x="390" y="270" as="sourcePoint" />
            <mxPoint x="440" y="220" as="targetPoint" />
          </mxGeometry>
        </mxCell>
        <mxCell id="nFy5Mc15L_o9c_TITV0G-103" value="&lt;span style=&quot;color: rgb(0, 0, 0); font-family: Helvetica; font-style: normal; font-variant-ligatures: normal; font-variant-caps: normal; font-weight: 400; letter-spacing: normal; orphans: 2; text-align: center; text-indent: 0px; text-transform: none; widows: 2; word-spacing: 0px; -webkit-text-stroke-width: 0px; background-color: rgb(255, 255, 255); text-decoration-thickness: initial; text-decoration-style: initial; text-decoration-color: initial; float: none; display: inline !important;&quot;&gt;&lt;font style=&quot;font-size: 8px;&quot;&gt;[else]&lt;/font&gt;&lt;br&gt;&lt;/span&gt;" style="text;whiteSpace=wrap;html=1;" vertex="1" parent="1">
          <mxGeometry x="300" y="160" width="60" height="20" as="geometry" />
        </mxCell>
        <mxCell id="nFy5Mc15L_o9c_TITV0G-104" value="" style="html=1;verticalAlign=bottom;endArrow=open;dashed=1;endSize=8;edgeStyle=elbowEdgeStyle;elbow=vertical;curved=0;rounded=0;" edge="1" parent="1">
          <mxGeometry relative="1" as="geometry">
            <mxPoint x="185.25" y="190" as="targetPoint" />
            <Array as="points">
              <mxPoint x="277.25" y="190" />
              <mxPoint x="247.25" y="180" />
              <mxPoint x="247.25" y="170" />
            </Array>
            <mxPoint x="302.25" y="190" as="sourcePoint" />
          </mxGeometry>
        </mxCell>
        <mxCell id="nFy5Mc15L_o9c_TITV0G-105" value="&lt;span style=&quot;color: rgb(0, 0, 0); font-family: Helvetica; font-style: normal; font-variant-ligatures: normal; font-variant-caps: normal; font-weight: 400; letter-spacing: normal; orphans: 2; text-align: center; text-indent: 0px; text-transform: none; widows: 2; word-spacing: 0px; -webkit-text-stroke-width: 0px; background-color: rgb(255, 255, 255); text-decoration-thickness: initial; text-decoration-style: initial; text-decoration-color: initial; float: none; display: inline !important;&quot;&gt;&lt;span style=&quot;font-size: 8px;&quot;&gt;[else]&lt;/span&gt;&lt;br&gt;&lt;/span&gt;" style="text;whiteSpace=wrap;html=1;" vertex="1" parent="1">
          <mxGeometry x="415" y="280" width="60" height="40" as="geometry" />
        </mxCell>
        <mxCell id="nFy5Mc15L_o9c_TITV0G-106" value="" style="html=1;verticalAlign=bottom;endArrow=open;dashed=1;endSize=8;edgeStyle=elbowEdgeStyle;elbow=vertical;curved=0;rounded=0;" edge="1" parent="1">
          <mxGeometry relative="1" as="geometry">
            <mxPoint x="186.5" y="300.8" as="targetPoint" />
            <Array as="points">
              <mxPoint x="390" y="300" />
              <mxPoint x="360" y="290" />
              <mxPoint x="360" y="280" />
            </Array>
            <mxPoint x="415" y="300" as="sourcePoint" />
          </mxGeometry>
        </mxCell>
        <mxCell id="nFy5Mc15L_o9c_TITV0G-107" value="alt" style="shape=umlFrame;whiteSpace=wrap;html=1;pointerEvents=0;width=40;height=25;" vertex="1" parent="1">
          <mxGeometry x="21.25" y="320" width="948.75" height="1120" as="geometry" />
        </mxCell>
        <mxCell id="nFy5Mc15L_o9c_TITV0G-108" value="" style="endArrow=none;dashed=1;html=1;rounded=0;exitX=0.003;exitY=0.027;exitDx=0;exitDy=0;exitPerimeter=0;entryX=1;entryY=0.036;entryDx=0;entryDy=0;entryPerimeter=0;" edge="1" parent="1" target="nFy5Mc15L_o9c_TITV0G-107">
          <mxGeometry width="50" height="50" relative="1" as="geometry">
            <mxPoint x="21.25" y="364" as="sourcePoint" />
            <mxPoint x="820" y="360" as="targetPoint" />
          </mxGeometry>
        </mxCell>
        <mxCell id="nFy5Mc15L_o9c_TITV0G-109" value="&lt;span style=&quot;color: rgb(0, 0, 0); font-family: Helvetica; font-style: normal; font-variant-ligatures: normal; font-variant-caps: normal; font-weight: 400; letter-spacing: normal; orphans: 2; text-align: center; text-indent: 0px; text-transform: none; widows: 2; word-spacing: 0px; -webkit-text-stroke-width: 0px; background-color: rgb(255, 255, 255); text-decoration-thickness: initial; text-decoration-style: initial; text-decoration-color: initial; float: none; display: inline !important;&quot;&gt;[else]&lt;br&gt;&lt;/span&gt;" style="text;whiteSpace=wrap;html=1;" vertex="1" parent="1">
          <mxGeometry x="167.5" y="350" width="60" height="25" as="geometry" />
        </mxCell>
        <mxCell id="nFy5Mc15L_o9c_TITV0G-110" value="&lt;div style=&quot;text-align: center;&quot;&gt;&lt;span style=&quot;background-color: rgb(255, 255, 255);&quot;&gt;&lt;font style=&quot;font-size: 9px;&quot;&gt;1.6: Return Error&lt;/font&gt;&lt;/span&gt;&lt;/div&gt;" style="text;whiteSpace=wrap;html=1;" vertex="1" parent="1">
          <mxGeometry x="70" y="470" width="80" height="20" as="geometry" />
        </mxCell>
        <mxCell id="nFy5Mc15L_o9c_TITV0G-111" value="" style="html=1;verticalAlign=bottom;endArrow=open;dashed=1;endSize=8;edgeStyle=elbowEdgeStyle;elbow=vertical;curved=0;rounded=0;" edge="1" parent="1">
          <mxGeometry relative="1" as="geometry">
            <mxPoint x="52.5" y="490" as="targetPoint" />
            <Array as="points">
              <mxPoint x="157.5" y="490" />
              <mxPoint x="137.5" y="510" />
            </Array>
            <mxPoint x="170" y="490" as="sourcePoint" />
          </mxGeometry>
        </mxCell>
        <mxCell id="nFy5Mc15L_o9c_TITV0G-112" value="" style="endArrow=none;dashed=1;html=1;rounded=0;exitX=0.003;exitY=0.027;exitDx=0;exitDy=0;exitPerimeter=0;" edge="1" parent="1">
          <mxGeometry width="50" height="50" relative="1" as="geometry">
            <mxPoint x="31.25" y="504" as="sourcePoint" />
            <mxPoint x="960" y="504" as="targetPoint" />
          </mxGeometry>
        </mxCell>
        <mxCell id="nFy5Mc15L_o9c_TITV0G-113" value="&lt;span style=&quot;color: rgb(0, 0, 0); font-family: Helvetica; font-style: normal; font-variant-ligatures: normal; font-variant-caps: normal; font-weight: 400; letter-spacing: normal; orphans: 2; text-align: center; text-indent: 0px; text-transform: none; widows: 2; word-spacing: 0px; -webkit-text-stroke-width: 0px; background-color: rgb(255, 255, 255); text-decoration-thickness: initial; text-decoration-style: initial; text-decoration-color: initial; float: none; display: inline !important;&quot;&gt;[else]&lt;br&gt;&lt;/span&gt;" style="text;whiteSpace=wrap;html=1;" vertex="1" parent="1">
          <mxGeometry x="167.5" y="500" width="60" height="25" as="geometry" />
        </mxCell>
        <mxCell id="nFy5Mc15L_o9c_TITV0G-114" value="" style="endArrow=none;dashed=1;html=1;rounded=0;exitX=0.003;exitY=0.027;exitDx=0;exitDy=0;exitPerimeter=0;entryX=1;entryY=0.132;entryDx=0;entryDy=0;entryPerimeter=0;" edge="1" parent="1" target="nFy5Mc15L_o9c_TITV0G-76">
          <mxGeometry width="50" height="50" relative="1" as="geometry">
            <mxPoint x="30" y="1014" as="sourcePoint" />
            <mxPoint x="809" y="1010" as="targetPoint" />
          </mxGeometry>
        </mxCell>
        <mxCell id="nFy5Mc15L_o9c_TITV0G-115" value="&lt;div style=&quot;text-align: center;&quot;&gt;&lt;span style=&quot;font-size: 11px; background-color: rgb(255, 255, 255);&quot;&gt;[else]&lt;/span&gt;&lt;/div&gt;" style="text;whiteSpace=wrap;html=1;" vertex="1" parent="1">
          <mxGeometry x="170" y="1010" width="72.5" height="20" as="geometry" />
        </mxCell>
        <mxCell id="nFy5Mc15L_o9c_TITV0G-116" value="&lt;div style=&quot;text-align: center;&quot;&gt;&lt;span style=&quot;font-size: 11px; background-color: rgb(255, 255, 255);&quot;&gt;1.12: Return Error&lt;/span&gt;&lt;/div&gt;" style="text;whiteSpace=wrap;html=1;" vertex="1" parent="1">
          <mxGeometry x="70" y="1090" width="100" height="20" as="geometry" />
        </mxCell>
        <mxCell id="nFy5Mc15L_o9c_TITV0G-117" value="" style="endArrow=none;dashed=1;html=1;rounded=0;entryX=1;entryY=0.189;entryDx=0;entryDy=0;entryPerimeter=0;" edge="1" parent="1" target="nFy5Mc15L_o9c_TITV0G-87">
          <mxGeometry width="50" height="50" relative="1" as="geometry">
            <mxPoint x="56" y="1136" as="sourcePoint" />
            <mxPoint x="790" y="1140" as="targetPoint" />
            <Array as="points">
              <mxPoint x="820" y="1136" />
            </Array>
          </mxGeometry>
        </mxCell>
        <mxCell id="nFy5Mc15L_o9c_TITV0G-118" value="" style="endArrow=none;dashed=1;html=1;rounded=0;exitX=0.003;exitY=0.027;exitDx=0;exitDy=0;exitPerimeter=0;entryX=0.999;entryY=0.349;entryDx=0;entryDy=0;entryPerimeter=0;" edge="1" parent="1" target="nFy5Mc15L_o9c_TITV0G-88">
          <mxGeometry width="50" height="50" relative="1" as="geometry">
            <mxPoint x="54" y="1304" as="sourcePoint" />
            <mxPoint x="788.5" y="1300" as="targetPoint" />
            <Array as="points">
              <mxPoint x="850" y="1300" />
            </Array>
          </mxGeometry>
        </mxCell>
        <mxCell id="nFy5Mc15L_o9c_TITV0G-119" value="&lt;div style=&quot;text-align: center;&quot;&gt;&lt;span style=&quot;font-size: 11px; background-color: rgb(255, 255, 255);&quot;&gt;[else]&lt;/span&gt;&lt;/div&gt;" style="text;whiteSpace=wrap;html=1;" vertex="1" parent="1">
          <mxGeometry x="170" y="1300" width="67.5" height="40" as="geometry" />
        </mxCell>
        <mxCell id="nFy5Mc15L_o9c_TITV0G-120" value="DriverSchedule&lt;br&gt;DAO" style="shape=umlLifeline;perimeter=lifelinePerimeter;whiteSpace=wrap;html=1;container=0;dropTarget=0;collapsible=0;recursiveResize=0;outlineConnect=0;portConstraint=eastwest;newEdgeStyle={&quot;edgeStyle&quot;:&quot;elbowEdgeStyle&quot;,&quot;elbow&quot;:&quot;vertical&quot;,&quot;curved&quot;:0,&quot;rounded&quot;:0};fillColor=#f8cecc;strokeColor=#b85450;" vertex="1" parent="1">
          <mxGeometry x="860" y="40" width="100" height="1450" as="geometry" />
        </mxCell>
        <mxCell id="nFy5Mc15L_o9c_TITV0G-121" value="" style="html=1;points=[];perimeter=orthogonalPerimeter;outlineConnect=0;targetShapes=umlLifeline;portConstraint=eastwest;newEdgeStyle={&quot;edgeStyle&quot;:&quot;elbowEdgeStyle&quot;,&quot;elbow&quot;:&quot;vertical&quot;,&quot;curved&quot;:0,&quot;rounded&quot;:0};fillColor=#f8cecc;strokeColor=#b85450;" vertex="1" parent="nFy5Mc15L_o9c_TITV0G-120">
          <mxGeometry x="45" y="1310" width="10" height="40" as="geometry" />
        </mxCell>
        <mxCell id="nFy5Mc15L_o9c_TITV0G-122" value="1.15: insert&lt;br&gt;(_employeeId,_shiftId)" style="html=1;verticalAlign=bottom;endArrow=block;edgeStyle=elbowEdgeStyle;elbow=vertical;curved=0;rounded=0;fillColor=#f8cecc;strokeColor=#b85450;" edge="1" parent="1" source="nFy5Mc15L_o9c_TITV0G-92" target="nFy5Mc15L_o9c_TITV0G-121">
          <mxGeometry relative="1" as="geometry">
            <mxPoint x="300" y="1370" as="sourcePoint" />
            <Array as="points">
              <mxPoint x="830" y="1360" />
              <mxPoint x="642" y="1370" />
              <mxPoint x="557" y="1360" />
              <mxPoint x="527" y="1320" />
              <mxPoint x="422" y="1270" />
            </Array>
            <mxPoint x="897" y="1370" as="targetPoint" />
            <mxPoint as="offset" />
          </mxGeometry>
        </mxCell>
        <mxCell id="nFy5Mc15L_o9c_TITV0G-123" value="" style="html=1;verticalAlign=bottom;endArrow=open;dashed=1;endSize=8;edgeStyle=elbowEdgeStyle;elbow=vertical;curved=0;rounded=0;fillColor=#f8cecc;strokeColor=#b85450;" edge="1" parent="1" source="nFy5Mc15L_o9c_TITV0G-121" target="nFy5Mc15L_o9c_TITV0G-92">
          <mxGeometry relative="1" as="geometry">
            <mxPoint x="870" y="1390" as="targetPoint" />
            <Array as="points">
              <mxPoint x="860" y="1380" />
              <mxPoint x="890" y="1390" />
              <mxPoint x="874.5" y="1350" />
            </Array>
            <mxPoint x="904.5" y="1390" as="sourcePoint" />
          </mxGeometry>
        </mxCell>
      </root>
    </mxGraphModel>
  </diagram>
</mxfile>
